<?xml version="1.0" standalone="no"?>
<!DOCTYPE svg PUBLIC "-//W3C//DTD SVG 20010904//EN"
 "http://www.w3.org/TR/2001/REC-SVG-20010904/DTD/svg10.dtd">
<svg version="1.0" xmlns="http://www.w3.org/2000/svg"
 width="768.000000pt" height="837.000000pt" viewBox="0 0 768.000000 837.000000"
 preserveAspectRatio="xMidYMid meet">

<g transform="translate(0.000000,837.000000) scale(0.100000,-0.100000)"
fill="#000000" stroke="none">
<path d="M1079 8357 c6 -8 8 -17 4 -20 -3 -4 3 -7 15 -7 25 0 30 -28 10 -48
-9 -9 -12 -48 -10 -135 3 -109 5 -124 24 -138 14 -11 20 -27 20 -52 0 -33 3
-38 33 -46 19 -5 47 -7 62 -5 15 2 78 8 138 13 208 18 245 23 245 32 0 6 -6 9
-12 8 -7 -1 -42 -1 -77 0 -55 1 -62 3 -51 16 7 8 28 17 49 21 48 9 67 31 64
77 -1 22 2 35 7 32 6 -4 10 -2 10 4 0 15 -34 31 -65 31 -15 0 -24 4 -20 10 3
6 22 10 41 10 19 0 34 5 34 11 0 5 5 7 10 4 6 -3 10 0 10 8 0 8 6 17 14 20 20
8 16 119 -4 125 -8 3 -23 13 -34 24 -32 29 -69 24 -83 -13 -12 -32 -13 -32
-69 -26 -30 3 -62 3 -70 0 -21 -8 -17 -33 5 -33 21 0 34 -13 24 -24 -3 -3 -13
0 -21 7 -12 10 -16 9 -20 -1 -3 -11 -7 -10 -21 1 -9 8 -29 17 -44 21 -17 4
-31 16 -38 33 -16 43 -38 52 -118 53 -60 0 -71 -2 -62 -13z m400 -126 c15 -27
-12 -49 -34 -28 -17 17 -10 47 11 47 7 0 18 -9 23 -19z m-54 -260 c5 -1 5 -5
-1 -11 -11 -11 -130 -18 -139 -8 -13 12 88 26 140 19z"/>
<path d="M1360 8360 c20 -13 40 -13 40 0 0 6 -12 10 -27 10 -22 0 -25 -2 -13
-10z"/>
<path d="M1762 8356 c8 -8 17 -10 24 -5 5 4 20 6 32 2 13 -3 22 -1 22 6 0 6
-19 11 -45 11 -39 0 -44 -2 -33 -14z"/>
<path d="M2270 8358 c0 -13 34 -270 46 -346 7 -47 20 -58 60 -48 24 6 25 9 19
60 -6 42 -4 54 6 53 56 -2 53 -13 34 138 -3 22 -9 51 -15 65 -5 14 -10 38 -12
54 -4 37 -28 48 -28 13 0 -14 6 -28 13 -30 9 -4 9 -8 -2 -15 -9 -7 -11 -19 -6
-41 8 -39 9 -131 0 -139 -3 -3 -15 3 -26 15 -15 15 -22 36 -24 74 -2 30 -6 78
-10 107 -7 46 -11 52 -31 52 -13 0 -24 -6 -24 -12z"/>
<path d="M2496 8298 c-4 -40 -9 -94 -12 -120 -2 -26 0 -50 6 -53 5 -3 10 -15
10 -25 0 -12 10 -21 29 -25 43 -9 49 -22 56 -115 7 -91 27 -186 44 -203 7 -7
15 -6 26 3 12 10 21 10 47 -1 18 -8 37 -13 42 -11 4 2 14 -5 21 -15 11 -15 16
-16 27 -5 11 11 10 12 -7 7 -16 -5 -17 -5 -5 3 10 8 19 7 29 -1 10 -8 13 -8 8
-1 -9 15 39 16 76 2 15 -6 30 -21 33 -34 3 -13 10 -21 15 -18 5 3 4 -7 -1 -21
-16 -41 -12 -65 8 -65 24 0 66 -44 59 -62 -4 -8 -8 -5 -12 10 -6 18 -14 22
-51 22 -24 0 -44 -4 -44 -8 0 -5 -14 -29 -30 -54 -48 -73 -107 -86 -160 -36
-14 13 -28 22 -32 21 -5 -2 -8 3 -8 10 0 8 -6 14 -13 14 -19 0 -19 -85 0 -113
8 -13 12 -32 8 -43 -8 -26 23 -43 63 -35 36 7 51 -11 28 -34 -10 -10 -29 -15
-51 -14 -25 2 -35 -1 -35 -12 0 -20 18 -30 33 -18 13 11 107 15 107 5 0 -11
-64 -65 -88 -74 -13 -5 -34 -9 -48 -9 -20 0 -24 -5 -24 -32 0 -17 -7 -39 -16
-49 -14 -16 -14 -23 0 -78 9 -33 13 -67 10 -76 -3 -8 1 -49 9 -92 9 -43 19
-102 22 -130 4 -29 11 -56 16 -59 6 -3 6 -11 -1 -19 -7 -8 -9 -18 -6 -24 10
-15 -16 -113 -38 -146 -11 -16 -38 -51 -60 -77 -67 -76 -86 -105 -86 -129 0
-13 -16 -37 -40 -59 -28 -26 -40 -45 -40 -65 0 -25 -42 -170 -60 -205 -10 -21
-31 -150 -28 -175 3 -30 -24 -115 -38 -115 -6 0 -25 7 -42 16 -48 23 -86 23
-90 -1 -2 -16 12 -28 64 -55 l67 -35 2 -63 c1 -34 1 -62 -1 -62 -3 0 -46 22
-97 49 -50 26 -121 63 -157 81 -36 19 -77 42 -92 52 -39 27 -68 24 -68 -7 0
-18 11 -30 43 -48 76 -44 161 -90 212 -115 28 -13 81 -42 118 -65 56 -33 68
-44 63 -60 -3 -12 1 -25 9 -31 21 -16 37 -96 20 -96 -21 0 -131 59 -160 86
-14 13 -32 24 -38 24 -7 0 -21 6 -32 14 -27 18 -111 65 -160 89 -22 11 -42 22
-45 26 -3 3 -34 21 -70 38 -36 18 -91 49 -123 69 -53 33 -57 37 -40 50 17 13
17 14 1 8 -20 -7 -25 12 -5 19 7 3 5 6 -5 6 -10 1 -18 -4 -18 -11 0 -9 -3 -9
-12 0 -9 9 -8 15 8 27 17 13 17 17 4 28 -9 7 -16 31 -17 56 0 24 -6 48 -12 54
-6 6 -11 23 -11 37 0 14 -5 31 -12 38 -7 7 -11 28 -10 47 3 37 -12 75 -28 75
-6 0 -10 -15 -11 -32 0 -32 -1 -32 -10 -8 -5 13 -11 36 -13 51 -3 23 1 28 28
33 24 5 28 9 16 16 -8 5 -27 10 -42 10 -26 0 -28 3 -28 40 0 22 -5 40 -10 40
-6 0 -8 11 -4 25 8 34 -12 32 -25 -2 -9 -25 -10 -23 -4 12 3 22 10 43 16 46 6
4 5 9 -1 13 -6 3 -13 -3 -17 -14 -8 -24 -18 -25 -35 -5 -7 8 -19 15 -26 15 -8
0 -11 -6 -8 -15 4 -8 1 -15 -5 -15 -6 0 -11 4 -11 9 0 5 -8 11 -17 14 -14 3
-11 7 12 16 l30 13 -30 13 c-26 11 -33 10 -51 -6 -30 -28 -36 -24 -31 19 2 20
2 29 0 20 -2 -10 -11 -18 -19 -18 -17 0 -18 -12 -3 -27 8 -8 3 -16 -21 -28
-35 -18 -49 -15 -25 5 22 18 19 31 -17 62 -36 30 -51 29 -23 -2 10 -11 13 -20
7 -20 -14 0 -14 -78 0 -86 4 -3 4 -13 -2 -23 -5 -10 -6 -21 -3 -25 4 -3 8 -23
10 -43 1 -21 7 -61 14 -91 6 -29 8 -60 5 -68 -3 -8 -1 -25 3 -37 10 -24 18
-85 27 -196 3 -35 9 -83 13 -106 8 -41 7 -43 -13 -34 -26 12 -210 -14 -232
-32 -19 -15 -23 -10 -26 29 -1 18 -11 42 -22 53 -14 16 -16 23 -6 29 7 5 9 16
5 30 -5 14 -3 20 3 16 14 -9 -18 73 -40 103 -10 13 -18 32 -18 41 0 10 -7 20
-15 24 -8 3 -15 12 -15 20 0 9 -9 24 -20 34 -12 11 -22 37 -26 68 -11 94 -23
108 -106 134 -21 6 -38 12 -38 13 0 1 -9 49 -21 107 -11 58 -27 139 -35 180
-8 41 -16 89 -18 105 -5 30 -38 189 -55 256 -12 52 -17 57 -70 73 -55 16 -345
81 -406 91 -22 3 -48 8 -57 11 -17 5 -18 -121 -18 -2555 0 -2517 0 -2561 19
-2561 11 0 21 4 23 8 5 12 68 57 123 88 28 15 56 35 63 45 12 18 132 79 155
79 6 0 41 9 77 20 94 29 228 49 368 56 113 5 126 4 170 -17 26 -12 60 -33 75
-46 16 -13 34 -23 40 -23 7 0 48 -27 92 -60 44 -33 83 -60 87 -60 4 0 18 -11
32 -25 19 -19 35 -25 71 -25 42 0 45 -2 36 -19 -11 -21 -5 -31 18 -31 9 0 27
-9 41 -20 25 -20 75 -27 84 -12 10 17 -11 31 -52 33 -50 3 -57 19 -8 19 42 0
60 20 19 21 -34 1 -79 17 -50 18 9 1 17 6 17 12 0 7 -11 9 -30 5 -22 -4 -30
-2 -30 9 0 8 -5 15 -11 15 -6 0 -9 -7 -5 -15 4 -11 -2 -15 -22 -15 -25 1 -26
2 -9 14 17 13 17 15 2 24 -16 8 -16 10 -1 15 22 9 20 24 -5 30 -28 7 -15 27
17 27 16 0 24 5 21 13 -2 7 -18 11 -38 10 -19 -1 -28 1 -21 3 20 9 14 24 -10
25 -19 0 -18 3 11 15 18 8 35 23 38 34 8 29 110 107 198 150 42 21 65 25 142
25 79 0 94 3 105 19 7 10 30 39 51 65 20 25 37 50 37 56 0 13 48 65 60 65 6 0
10 8 10 18 0 21 50 98 98 147 6 8 12 17 12 21 0 3 15 23 33 44 48 55 67 80 67
86 0 4 20 35 45 71 25 35 45 66 45 68 0 3 7 13 15 22 8 10 25 33 37 52 27 41
57 57 38 21 -8 -15 -8 -20 -1 -16 10 6 17 -41 12 -81 -1 -6 3 -14 9 -18 5 -3
10 -18 10 -33 0 -15 7 -36 15 -46 8 -11 15 -32 15 -47 0 -15 5 -31 11 -35 6
-3 19 -25 30 -48 11 -22 31 -61 44 -86 13 -25 24 -53 24 -62 1 -10 6 -18 11
-18 6 0 20 -20 32 -45 12 -25 26 -45 31 -45 5 0 4 -6 -2 -13 -8 -11 -5 -17 14
-27 14 -7 25 -19 25 -27 0 -7 5 -13 10 -13 6 0 10 -6 10 -14 0 -8 3 -16 8 -18
10 -4 52 -84 52 -99 0 -6 14 -24 32 -39 22 -20 30 -33 25 -49 -3 -14 0 -21 9
-21 8 0 14 -7 14 -15 0 -8 4 -15 9 -15 6 0 20 -18 32 -39 12 -22 30 -42 40
-44 11 -3 19 -14 19 -26 0 -12 6 -21 15 -21 8 0 15 -6 15 -14 0 -7 7 -19 15
-26 8 -7 15 -21 15 -32 0 -17 3 -18 14 -8 12 9 24 2 65 -39 28 -28 51 -55 51
-60 0 -5 8 -11 18 -15 9 -3 44 -28 77 -56 33 -27 71 -56 85 -63 13 -6 38 -24
54 -39 17 -16 34 -28 39 -28 5 0 27 -13 50 -29 23 -15 83 -50 132 -76 105 -57
125 -69 310 -190 189 -124 270 -173 299 -181 14 -3 47 -21 73 -40 26 -19 57
-34 69 -34 11 0 29 -9 39 -20 13 -14 25 -18 43 -13 17 4 23 2 18 -6 -4 -6 -2
-11 3 -11 6 0 11 5 11 10 0 6 5 10 11 10 6 0 8 -7 5 -17 -4 -9 -1 -20 6 -25
19 -12 25 -10 31 11 5 19 -27 41 -60 41 -13 0 -13 3 -3 15 7 8 23 15 36 15 12
0 25 4 28 9 3 4 20 11 38 15 18 4 57 22 85 41 29 19 56 35 59 35 4 0 21 10 38
23 17 12 44 28 59 35 15 6 52 30 81 52 56 43 90 50 100 24 4 -9 4 -19 1 -22
-3 -3 -5 0 -5 6 0 7 -4 12 -10 12 -5 0 -10 -11 -10 -25 0 -14 -4 -25 -10 -25
-5 0 -7 -7 -4 -15 4 -8 1 -15 -5 -15 -6 0 -8 -7 -5 -15 4 -8 1 -15 -5 -15 -6
0 -11 -5 -11 -10 0 -14 -42 -103 -55 -116 -6 -6 -19 -31 -30 -55 -11 -24 -25
-50 -33 -57 -29 -31 -42 -72 -36 -112 4 -22 11 -43 15 -46 5 -3 9 -33 9 -67 1
-68 23 -253 32 -262 7 -7 84 106 94 138 12 37 115 217 125 217 5 0 9 5 9 10 0
6 8 20 18 30 18 19 18 19 35 0 18 -22 37 -26 37 -9 0 5 5 7 11 3 8 -4 7 -9 -2
-15 -8 -5 -12 -9 -9 -10 45 -8 55 -11 62 -22 4 -6 8 -22 8 -34 0 -16 6 -23 18
-23 11 0 24 -11 30 -25 6 -14 16 -25 21 -25 5 0 14 -13 20 -29 7 -15 22 -34
34 -40 12 -7 33 -28 47 -46 14 -19 30 -35 37 -35 6 0 18 -9 26 -20 14 -20 14
-20 31 -1 12 13 14 21 6 26 -7 4 -3 15 10 32 11 14 20 34 20 44 0 29 11 48 24
43 7 -3 18 7 26 21 7 14 17 25 22 25 4 0 8 9 8 20 0 11 5 20 10 20 6 0 10 9
10 20 0 11 5 30 12 43 6 12 14 29 18 37 4 8 15 14 23 12 9 -1 18 2 22 8 3 6 0
7 -9 4 -11 -4 -16 0 -16 10 0 9 6 16 14 16 7 0 20 8 27 17 12 16 12 17 -1 6
-9 -7 -21 -8 -29 -4 -11 7 -11 13 3 32 20 29 20 39 0 39 -10 0 -14 6 -10 15 3
8 1 15 -4 15 -5 0 -7 15 -5 32 3 18 1 29 -3 23 -4 -5 -16 -17 -27 -25 -19 -14
-20 -14 -2 6 19 23 23 39 7 29 -5 -3 -10 1 -10 10 0 9 13 22 30 28 19 7 30 18
30 30 0 18 -1 18 -35 -2 -22 -13 -37 -16 -41 -9 -8 12 46 59 61 54 6 -2 12 7
13 21 1 14 -3 23 -11 22 -26 -3 -36 2 -31 16 4 8 9 13 14 10 10 -6 4 59 -9 83
-6 10 -8 21 -6 24 5 5 -23 96 -35 113 -3 6 -15 39 -24 75 -10 36 -29 88 -41
115 -12 28 -28 68 -36 90 -7 22 -14 41 -15 43 -3 4 -47 -18 -54 -27 -7 -10
-229 -183 -270 -211 -19 -13 -36 -27 -38 -31 -1 -3 -14 -4 -27 -1 -14 2 -31
-1 -39 -7 -30 -25 -108 -39 -207 -37 -55 1 -102 -1 -105 -5 -2 -4 -31 -5 -64
-3 -37 2 -60 -1 -60 -7 0 -6 -8 -8 -19 -4 -10 3 -53 6 -95 7 -42 1 -79 5 -82
9 -2 5 -11 6 -19 2 -8 -3 -15 0 -15 7 0 8 -9 10 -25 6 -19 -5 -25 -2 -25 10 0
8 -6 14 -12 11 -7 -2 -12 -9 -11 -15 1 -5 -7 -8 -17 -5 -11 3 -20 9 -20 13 0
12 -53 33 -82 33 -16 0 -28 3 -28 8 0 4 -30 22 -67 40 -38 18 -79 46 -93 61
-13 15 -30 28 -37 28 -8 0 -18 11 -23 25 -5 14 -16 25 -24 25 -7 0 -16 7 -20
15 -3 8 -17 15 -31 15 -21 0 -25 4 -21 18 4 12 -5 24 -29 40 -19 12 -39 22
-45 22 -5 0 -10 6 -10 14 0 19 -27 39 -40 31 -8 -5 -6 -13 5 -25 9 -10 13 -20
8 -23 -15 -9 -39 17 -66 76 -15 33 -33 57 -42 57 -9 0 -19 8 -22 18 -4 9 -14
22 -22 29 -9 7 -12 13 -7 13 5 0 3 7 -4 15 -10 12 -16 13 -26 4 -8 -6 -14 -17
-14 -24 0 -7 -7 -18 -15 -25 -13 -10 -13 -15 -3 -21 7 -4 15 -4 18 1 3 6 6 -6
6 -24 0 -22 -4 -32 -10 -28 -23 13 -91 69 -128 105 -21 20 -48 37 -58 37 -22
0 -27 16 -7 23 7 3 5 6 -5 6 -10 1 -18 9 -18 19 0 10 -18 36 -40 57 -22 21
-40 47 -40 57 0 10 -4 18 -10 18 -5 0 -10 -6 -10 -12 0 -9 -3 -9 -9 1 -10 16
-3 42 13 53 7 5 4 8 -7 8 -10 0 -21 8 -24 18 -4 9 -17 25 -30 35 -13 10 -21
23 -18 28 9 14 -13 47 -43 63 -23 13 -24 15 -7 16 18 0 17 2 -5 13 -15 8 -27
24 -31 46 -4 18 -12 38 -18 44 -6 6 -11 25 -11 43 0 19 -6 34 -15 38 -8 3 -15
15 -15 26 0 11 -5 20 -11 20 -7 0 -9 9 -6 22 4 12 1 28 -5 35 -6 8 -17 50 -24
95 -7 45 -19 85 -26 89 -9 6 -7 9 7 9 28 0 31 39 4 49 -19 6 -19 8 -4 21 14
12 13 15 -14 26 -30 13 -42 34 -20 34 8 0 9 4 0 13 -14 18 -2 30 15 16 10 -9
15 -7 20 5 10 26 -3 48 -25 41 -23 -7 -39 14 -20 26 10 6 11 9 2 9 -8 0 -13
15 -13 40 0 22 5 40 10 40 16 0 11 32 -7 46 -15 11 -16 16 -5 31 20 29 32 61
34 94 1 17 8 35 15 40 6 6 9 17 6 25 -3 9 0 12 9 9 16 -6 22 31 7 41 -6 4 -2
16 12 30 18 19 21 30 15 63 -5 34 -4 39 9 35 17 -7 21 21 5 31 -6 4 -8 16 -4
27 4 14 2 18 -5 14 -7 -5 -11 4 -10 26 0 28 2 30 10 13 7 -17 8 -16 7 10 0 17
2 37 6 46 4 8 2 27 -3 41 -8 20 -7 28 4 32 8 3 15 16 14 28 -1 34 16 91 36
121 17 27 17 83 0 305 -2 17 1 35 6 38 15 9 10 27 -6 21 -8 -4 -17 -2 -21 4
-3 6 4 13 15 16 21 5 21 6 4 25 -17 19 -17 20 0 33 9 6 17 23 17 37 0 14 3 28
7 32 4 4 9 28 10 54 2 26 9 52 16 57 16 13 14 68 -3 99 -11 21 -10 28 8 51 11
14 23 21 26 16 3 -5 -1 -11 -9 -15 -21 -8 -19 -26 4 -26 11 0 21 -5 23 -12 2
-6 14 8 27 33 13 24 29 48 37 52 8 4 14 12 14 17 0 16 -22 11 -36 -7 -12 -17
-13 -17 -14 -1 0 23 13 29 73 32 45 3 52 6 50 23 -1 13 4 19 15 19 9 0 31 2
47 3 29 2 29 2 6 12 -19 8 -21 12 -11 24 7 8 21 15 31 15 11 0 19 7 19 15 0 8
9 19 20 25 11 6 19 18 18 28 -1 9 0 28 1 42 2 25 2 25 16 -5 12 -24 14 -25 8
-5 -5 22 -4 23 10 12 13 -11 18 -10 28 10 7 13 12 26 11 31 -1 4 7 7 17 7 11
0 23 5 26 10 5 8 12 7 22 -2 12 -10 17 -9 25 5 5 10 13 15 19 12 5 -4 9 -1 9
5 0 12 95 60 120 60 8 0 21 4 29 9 12 8 12 12 2 24 -19 23 15 57 56 57 17 0
35 5 38 10 3 6 18 10 32 10 34 0 93 21 93 33 0 5 7 6 15 3 9 -3 41 1 72 9 31
8 66 12 78 9 12 -3 49 2 83 10 56 15 237 45 377 62 90 12 139 9 265 -15 63
-12 138 -26 167 -31 28 -5 63 -16 76 -25 14 -9 28 -12 31 -7 3 5 17 7 31 5 13
-3 22 -9 19 -14 -3 -5 4 -9 15 -9 11 0 26 -8 33 -18 10 -15 29 -19 93 -20 145
-4 160 -3 202 4 52 8 110 -16 123 -52 5 -13 15 -24 22 -24 7 0 24 -9 38 -20
18 -13 28 -16 37 -8 8 6 24 7 40 3 l28 -8 -25 -7 c-17 -6 -19 -8 -7 -9 10 -1
16 -5 13 -10 -6 -8 39 -21 75 -21 20 0 59 -33 59 -50 0 -5 11 -10 25 -10 17 0
25 -6 25 -17 0 -14 2 -15 9 -5 4 8 11 13 15 13 22 -3 28 1 23 19 -6 22 8 28
16 7 3 -8 21 -14 42 -15 46 -2 55 -8 55 -37 0 -18 7 -25 30 -30 17 -4 30 -11
30 -16 0 -6 8 -9 18 -7 11 2 26 -3 34 -9 8 -7 28 -14 43 -15 21 -2 31 -10 39
-30 5 -15 18 -29 29 -32 10 -2 16 -9 13 -15 -4 -5 -2 -12 4 -16 21 -13 54 -91
51 -122 -1 -18 1 -33 6 -33 4 0 9 -26 10 -58 1 -31 6 -86 12 -122 6 -36 10
-183 10 -330 -1 -338 -3 -312 21 -272 12 19 18 42 15 52 -7 23 14 70 32 70 12
0 17 12 14 37 -2 15 38 43 61 43 9 0 33 -14 52 -30 87 -76 88 -249 5 -475 -86
-232 -175 -411 -254 -515 -35 -46 -45 -70 -60 -140 -54 -268 -92 -377 -183
-530 -137 -229 -283 -380 -611 -633 -34 -26 -61 -53 -58 -60 6 -19 121 -54
199 -60 88 -7 291 -58 313 -78 5 -5 17 -9 28 -9 10 0 15 -5 12 -10 -4 -7 3 -9
22 -4 27 6 27 6 8 -9 -12 -10 -15 -16 -7 -17 7 0 10 -4 7 -10 -3 -5 6 -12 20
-16 14 -3 25 -11 25 -16 0 -6 7 -7 16 -4 12 5 15 2 10 -9 -8 -21 14 -54 32
-47 11 4 13 0 8 -16 -6 -17 -4 -21 8 -16 9 3 20 -3 28 -15 7 -12 18 -21 25
-21 7 0 13 -4 13 -10 0 -5 7 -10 15 -10 7 0 18 -6 22 -14 4 -7 31 -26 59 -40
71 -37 88 -57 79 -95 -5 -23 -3 -33 9 -37 9 -3 16 -12 16 -20 0 -8 5 -14 10
-14 6 0 10 -5 10 -10 0 -6 12 -28 26 -49 18 -28 24 -49 22 -77 -3 -36 -1 -39
20 -36 23 3 23 3 6 -22 -16 -25 -16 -26 1 -20 15 6 15 4 4 -14 -9 -15 -16 -18
-21 -9 -5 8 -9 5 -14 -8 -4 -11 -16 -28 -28 -38 -21 -19 -21 -19 12 -13 26 5
30 3 20 -7 -6 -8 -22 -11 -35 -9 -18 3 -22 1 -17 -12 3 -9 1 -17 -5 -17 -26
-3 -30 -4 -37 -11 -3 -4 16 -5 45 -1 35 4 51 2 51 -6 0 -6 -12 -11 -28 -11
-15 0 -35 -9 -45 -20 -21 -24 -21 -30 -3 -30 17 0 29 -27 16 -35 -9 -6 20 -66
45 -95 8 -8 19 -26 25 -40 6 -14 16 -34 23 -45 51 -82 65 -129 45 -152 -8 -9
-7 -13 2 -13 7 0 10 -7 6 -16 -3 -8 -2 -12 4 -9 6 3 10 2 10 -4 0 -5 -5 -11
-11 -13 -9 -3 -9 -10 0 -27 7 -12 9 -30 5 -39 -9 -21 -5 -54 7 -66 5 -6 9 -27
9 -48 0 -24 5 -41 14 -44 8 -3 14 -23 16 -52 1 -26 3 -60 4 -77 1 -21 7 -31
20 -33 17 -4 18 0 13 34 -4 22 0 60 7 89 9 29 17 128 20 240 4 139 12 216 27
285 28 124 32 181 14 174 -15 -6 -55 12 -55 25 0 5 16 35 35 67 19 32 35 63
35 70 0 7 18 43 40 81 42 73 69 138 77 188 2 17 22 48 44 70 l39 41 0 124 c0
69 0 147 -1 173 -1 64 25 105 75 122 39 14 184 158 278 276 43 54 62 54 34 0
-109 -210 -226 -580 -226 -717 0 -44 -5 -112 -10 -153 -6 -41 -8 -76 -7 -78 2
-1 28 9 58 23 30 15 61 27 69 28 20 2 60 28 60 40 0 4 -7 3 -16 -5 -9 -7 -33
-14 -53 -15 -55 -3 -73 35 -70 142 2 44 -1 86 -5 92 -7 11 11 90 34 147 4 11
16 48 26 82 11 35 22 63 26 63 4 0 10 16 14 35 8 46 18 51 34 17 7 -15 15 -22
17 -15 2 7 17 26 33 43 26 27 47 81 42 103 -2 5 2 6 7 3 10 -6 31 45 31 75 0
11 5 19 10 19 6 0 10 10 10 23 1 12 9 40 20 62 11 22 19 50 20 61 0 12 7 27
15 34 8 7 17 28 21 49 4 20 12 43 19 51 7 8 20 34 31 58 10 23 21 42 26 42 4
0 8 11 8 24 0 13 9 35 20 49 20 25 20 45 20 2196 l0 2171 -35 0 c-25 0 -37 6
-46 22 -10 19 -6 26 35 63 46 42 46 43 46 107 0 58 -3 67 -30 93 -38 36 -38
45 0 45 l30 0 0 83 -1 82 -40 28 c-30 20 -40 33 -36 47 3 11 -3 26 -14 35 -23
22 -35 75 -19 85 7 4 21 5 31 3 11 -3 28 2 39 12 19 17 19 17 15 -3 -2 -11 3
-23 11 -26 11 -4 14 5 14 45 l0 50 -52 -6 c-91 -11 -101 -10 -105 3 -3 6 0 12
6 12 6 0 11 8 11 18 1 16 2 16 13 0 9 -11 24 -15 47 -13 19 2 45 4 58 4 l22 1
0 279 c0 235 -2 280 -15 291 -8 7 -15 17 -15 22 0 6 7 5 15 -2 13 -11 15 -8
15 14 0 25 -1 26 -16 12 -20 -21 -27 -20 -42 4 -13 21 -52 28 -52 9 0 -6 -16
-9 -37 -7 -36 3 -38 5 -37 38 1 19 5 52 9 73 l8 37 -168 0 -168 0 7 -46 c3
-26 6 -62 6 -82 l0 -34 60 4 c55 4 74 -2 51 -17 -11 -6 6 -66 22 -76 17 -12
-3 -29 -34 -29 -31 0 -49 27 -49 75 0 29 -28 41 -45 18 -11 -14 -14 0 -20 85
l-7 102 -165 0 -165 0 3 -44 c2 -24 1 -42 -3 -39 -5 2 -8 22 -8 44 l0 39 -601
0 -601 0 7 -107 c4 -60 10 -126 14 -148 6 -39 8 -40 46 -40 26 0 39 4 38 12
-6 29 96 53 118 27 17 -20 -6 -44 -42 -44 -18 0 -32 -7 -39 -19 -7 -15 -23
-21 -58 -23 l-47 -3 2 -90 c2 -117 23 -314 34 -321 5 -3 9 -32 9 -64 0 -32 4
-62 10 -65 5 -3 37 -7 70 -7 33 0 60 -3 60 -5 0 -31 -57 -61 -102 -54 -11 1
-18 -4 -18 -13 0 -9 7 -16 16 -16 22 0 62 -48 58 -69 -12 -64 -15 -71 -33 -71
-26 0 -31 -18 -19 -71 22 -101 22 -113 2 -104 -11 4 -33 9 -50 10 -17 2 -40 7
-50 13 -136 69 -129 66 -194 93 -30 12 -66 22 -78 21 -22 -2 -73 26 -97 52 -5
6 -22 19 -37 29 -32 20 -36 44 -10 64 15 12 4 13 -78 9 -53 -3 -125 -1 -160 4
-36 6 -135 9 -220 9 -85 -1 -174 -1 -197 0 -33 1 -45 -3 -53 -19 -8 -15 -17
-18 -43 -14 -43 8 -87 25 -87 34 0 4 -30 11 -67 15 -133 15 -143 15 -143 -2 0
-9 3 -14 6 -10 8 7 55 -34 49 -43 -3 -4 2 -13 10 -20 18 -15 20 -61 3 -78 -29
-29 -91 1 -196 98 -15 14 -34 25 -42 25 -8 0 -14 6 -12 13 1 6 -1 11 -5 10 -5
-1 -21 5 -38 12 -16 7 -38 12 -49 11 -10 -2 -16 1 -13 6 3 4 -30 8 -74 8 -43
0 -79 -3 -79 -7 0 -5 -4 -8 -10 -8 -5 0 -10 7 -10 15 0 20 -19 19 -27 -1 -5
-13 -7 -13 -14 -2 -7 10 -9 10 -9 1 0 -8 -13 -13 -32 -13 -17 0 -28 -3 -24 -7
3 -4 -17 -16 -45 -28 -86 -34 -90 -43 -95 -251 -5 -205 -8 -230 -24 -250 -16
-18 -44 -18 -60 1 -14 16 -39 285 -32 336 l5 32 -44 -7 c-65 -10 -108 -28
-114 -47 -3 -9 -17 -20 -30 -23 -14 -4 -25 -11 -25 -16 0 -6 -9 -10 -20 -10
-22 0 -26 10 -9 27 13 13 18 68 7 86 -6 9 -15 8 -39 -5 -38 -22 -63 -23 -79
-3 -8 9 -31 15 -59 16 -39 0 -42 2 -21 9 21 7 284 31 342 31 24 0 45 27 26 34
-8 3 -21 5 -28 3 -7 -2 -15 3 -17 10 -3 7 1 11 7 10 7 -2 13 10 15 27 3 28 2
28 -7 8 -14 -29 -25 -29 -30 1 -4 21 1 25 45 37 57 15 80 41 67 75 -6 15 -5
24 2 26 7 3 8 9 3 18 -5 8 -8 30 -6 49 2 19 -3 37 -10 41 -11 7 -15 22 -18 66
-1 6 -13 17 -27 24 -25 14 -22 15 63 27 48 7 106 17 128 23 56 15 202 6 244
-16 55 -28 125 -18 176 24 23 19 30 34 32 65 1 22 7 51 14 64 12 22 10 27 -34
66 -26 23 -64 47 -85 52 -27 8 -37 16 -37 30 0 15 -8 21 -32 23 -28 3 -33 0
-33 -17 0 -14 -6 -21 -20 -21 -11 0 -20 7 -20 14 0 12 -21 15 -112 15 -61 0
-115 4 -119 8 -3 5 -11 49 -18 98 -6 50 -16 111 -23 138 -13 48 -28 63 -28 27
0 -11 -5 -20 -11 -20 -6 0 -8 8 -4 20 6 19 -2 19 -438 20 l-444 0 -7 -72z
m3339 52 c4 -6 -12 -10 -39 -10 -25 0 -46 5 -46 10 0 6 18 10 39 10 22 0 43
-4 46 -10z m333 -17 c-21 -2 -55 -2 -75 0 -21 2 -4 4 37 4 41 0 58 -2 38 -4z
m-313 -51 c-23 -12 -32 -12 -54 -1 l-26 13 35 6 c19 3 43 4 54 1 16 -3 15 -6
-9 -19z m318 11 c-13 -2 -33 -2 -45 0 -13 2 -3 4 22 4 25 0 35 -2 23 -4z m89
-135 c-9 -9 -12 -7 -12 12 0 19 3 21 12 12 9 -9 9 -15 0 -24z m-97 -8 c-16
-18 -16 -20 -2 -20 10 0 17 -6 17 -14 0 -16 -52 -28 -86 -20 -26 7 -33 24 -9
24 8 0 15 9 15 19 0 19 16 26 64 30 18 1 19 0 1 -19z m122 -12 c-3 -8 -6 -5
-6 6 -1 11 2 17 5 13 3 -3 4 -12 1 -19z m-454 5 c-7 -2 -19 -2 -25 0 -7 3 -2
5 12 5 14 0 19 -2 13 -5z m647 -18 c0 -16 -52 -21 -84 -9 -28 11 -6 24 40 24
32 0 44 -4 44 -15z m700 -10 c0 -8 -8 -15 -17 -15 -10 -1 -51 -3 -92 -7 -56
-4 -75 -2 -82 8 -11 18 23 26 119 28 58 1 72 -2 72 -14z m-1212 -57 c2 -12 -3
-18 -16 -18 -31 0 -52 11 -52 27 0 22 64 13 68 -9z m-2324 -19 c-8 -14 -44
-10 -44 5 0 9 8 12 25 8 14 -2 22 -8 19 -13z m-754 -30 c13 -7 13 -8 0 -8 -8
0 -26 6 -40 15 l-25 15 25 -7 c14 -3 32 -10 40 -15z m66 -25 c19 -15 19 -15
-1 -6 -11 5 -27 12 -35 15 -13 5 -13 6 1 6 8 1 24 -6 35 -15z m4654 -26 c0 -4
-13 -8 -30 -8 -16 0 -30 4 -30 8 0 5 14 9 30 9 17 0 30 -4 30 -9z m-4556 -114
c3 -8 2 -12 -4 -9 -6 3 -10 10 -10 16 0 14 7 11 14 -7z m104 -52 c8 -6 10 -19
6 -41 -4 -18 -10 -29 -13 -24 -3 4 -19 13 -36 18 -40 14 -45 42 -8 48 15 2 30
5 33 5 3 1 11 -2 18 -6z m3972 -227 c0 -10 11 -16 33 -17 l32 -1 -32 -4 c-18
-2 -33 -8 -33 -12 0 -5 -12 -6 -26 -3 -22 4 -24 6 -10 14 9 5 16 16 16 23 0 8
5 15 10 15 6 0 10 -7 10 -15z m215 -3 c0 -18 -20 -15 -23 4 -3 10 1 15 10 12
7 -3 13 -10 13 -16z m115 14 c0 -3 -4 -8 -10 -11 -5 -3 -10 -1 -10 4 0 6 5 11
10 11 6 0 10 -2 10 -4z m-73 -12 c-3 -3 -12 -4 -19 -1 -8 3 -5 6 6 6 11 1 17
-2 13 -5z m-465 -26 c3 -7 9 -8 19 -3 8 5 27 8 44 6 36 -4 105 -37 105 -51 0
-6 10 -10 23 -10 30 0 127 -144 127 -190 0 -55 -77 -170 -95 -141 -9 16 -25 3
-25 -20 0 -13 -7 -19 -22 -20 -42 -2 -73 3 -76 12 -2 5 -12 9 -22 9 -10 0 -21
4 -25 10 -3 5 -12 7 -21 3 -13 -5 -13 -8 2 -24 9 -11 25 -19 35 -19 19 0 79
-55 79 -72 0 -12 -26 -38 -38 -38 -6 0 -13 -7 -16 -16 -4 -9 -11 -12 -18 -7
-7 4 -33 9 -58 9 -25 1 -57 5 -72 9 l-26 7 2 -66 c1 -41 -2 -66 -8 -66 -6 0
-2 -8 9 -16 19 -14 19 -16 2 -25 -32 -18 -38 -52 -14 -71 21 -16 21 -17 3 -37
-11 -12 -16 -21 -12 -21 4 0 0 -7 -8 -16 -9 -8 -16 -21 -16 -29 0 -7 -11 -37
-24 -66 -14 -30 -28 -71 -31 -91 -4 -21 -11 -35 -16 -32 -5 3 -9 -4 -9 -16 0
-12 -4 -19 -9 -16 -5 4 -7 -4 -3 -16 3 -14 2 -19 -6 -14 -7 4 -12 1 -12 -7 0
-8 -17 -34 -39 -58 -36 -41 -40 -43 -65 -31 -32 14 -33 40 -6 101 11 23 17 47
14 52 -3 5 -1 9 5 9 6 0 15 19 21 43 6 23 15 51 20 62 4 11 11 34 14 51 4 28
0 35 -41 65 -26 19 -56 40 -67 46 -15 9 -16 13 -6 13 10 0 11 3 3 8 -24 16
-17 41 21 71 31 25 48 31 87 31 l49 0 -3 98 -4 97 -44 3 c-75 6 -131 -7 -137
-30 -5 -20 -6 -20 -19 -3 -12 18 -13 17 -13 -6 0 -13 -11 -37 -23 -53 -20 -25
-30 -29 -63 -26 -21 2 -55 3 -75 4 -31 0 -37 4 -45 31 -12 39 -25 38 -43 -2
-18 -40 -91 -74 -168 -77 -46 -2 -58 -7 -83 -34 -35 -38 -64 -41 -85 -8 -19
28 -12 47 29 85 14 14 26 28 26 33 0 5 11 20 25 34 19 19 24 31 19 50 -10 39
25 58 102 55 55 -2 63 0 69 18 5 16 15 21 44 21 40 0 42 3 42 64 0 31 14 25
21 -8 3 -21 38 -31 38 -11 0 7 10 13 23 12 12 0 34 3 49 6 18 4 27 2 25 -6 -1
-6 8 -13 20 -15 18 -3 26 5 40 35 10 21 18 39 19 41 1 1 9 0 18 -4 9 -3 13
-11 10 -16 -4 -6 2 -8 12 -6 9 1 18 8 18 13 0 6 5 16 12 23 16 15 124 16 124
1 0 -6 7 -9 15 -5 8 3 15 1 15 -4 0 -4 16 -23 35 -42 20 -18 33 -38 31 -44 -2
-6 13 -11 39 -13 24 -1 58 -6 76 -11 18 -5 34 -8 36 -7 1 2 -4 37 -11 78 -10
54 -14 64 -15 37 -1 -20 -6 -40 -12 -44 -19 -11 -49 30 -53 72 -3 27 -9 40
-21 42 -14 3 -16 11 -10 50 3 26 13 52 21 58 8 7 13 16 12 20 -2 5 0 10 5 12
24 8 37 -2 46 -35 14 -51 14 -69 -3 -86 -12 -11 -11 -15 4 -25 24 -15 49 10
31 32 -6 7 -11 27 -10 42 0 16 -2 57 -6 92 -5 42 -4 62 3 62 6 0 12 -5 14 -12z
m-228 -31 c-3 -8 -38 -13 -100 -15 -53 -1 -105 -7 -115 -12 -10 -6 -42 -10
-71 -10 -41 0 -60 5 -83 25 l-30 24 35 1 c19 0 59 3 89 7 37 4 52 3 48 -5 -10
-15 13 -20 46 -11 15 4 52 7 83 6 35 -2 59 2 66 10 13 16 40 -1 32 -20z m756
-59 c1 -2 3 -37 6 -79 6 -72 5 -76 -19 -91 -16 -11 -31 -37 -43 -77 -10 -34
-21 -61 -24 -61 -8 0 -30 85 -31 123 -1 17 -3 24 -6 15 -4 -14 -8 -15 -24 -5
-10 6 -19 20 -19 30 0 21 18 58 34 70 6 5 0 5 -12 2 -21 -6 -23 -5 -13 12 13
26 38 46 48 40 5 -3 19 1 33 9 21 11 69 19 70 12z m-815 -58 c18 -20 18 -21
-2 -41 -18 -18 -23 -19 -42 -7 -18 11 -23 11 -31 -2 -6 -10 -10 -11 -10 -2 0
6 -9 12 -20 12 -26 0 -25 17 3 41 30 25 79 24 102 -1z m934 -111 c6 -27 11
-64 11 -81 0 -49 -18 -20 -23 37 -2 28 -12 67 -21 89 -21 49 -20 56 4 28 10
-12 23 -45 29 -73z m-4520 -109 c15 0 51 -37 51 -53 0 -8 -7 -17 -15 -21 -38
-14 -67 26 -57 81 5 27 7 32 10 16 2 -13 7 -23 11 -23z m-291 -138 c2 -7 -6
-12 -17 -12 -21 0 -27 11 -14 24 9 9 26 2 31 -12z m3539 -134 c-3 -8 -6 -5 -6
6 -1 11 2 17 5 13 3 -3 4 -12 1 -19z m750 -30 c-1 -13 -16 -36 -34 -51 -18
-16 -33 -35 -33 -42 0 -7 -12 -21 -27 -30 l-26 -18 21 31 c12 16 22 35 22 41
0 6 5 11 10 11 6 0 10 5 10 11 0 8 48 66 57 69 1 0 1 -10 0 -22z m-4197 -16
c0 -16 -9 -37 -20 -47 -11 -10 -20 -16 -21 -14 0 2 -2 23 -4 47 -3 39 -1 42
21 42 20 0 24 -5 24 -28z m3490 -102 c-12 -8 -12 -10 5 -10 23 0 84 -35 103
-58 14 -18 17 -72 3 -72 -5 0 -15 7 -22 16 -7 9 -36 31 -65 49 -28 18 -55 38
-59 45 -11 19 3 40 27 40 19 0 20 -2 8 -10z m570 -64 c0 -16 -28 -42 -36 -33
-8 7 14 47 26 47 6 0 10 -6 10 -14z m-331 -35 c24 -18 33 -72 13 -79 -5 -1 -8
-13 -6 -25 2 -12 1 -16 -2 -9 -5 10 -9 10 -20 1 -14 -12 -19 -6 -26 34 -5 27
-23 20 -21 -9 2 -27 -9 -31 -26 -10 -17 20 -7 60 17 71 12 5 25 18 28 27 7 22
13 22 43 -1z m787 -8 c11 -35 22 -48 38 -45 17 3 20 -12 6 -43 -6 -13 -9 -15
-9 -5 -1 10 -6 7 -17 -8 -20 -29 -63 -47 -77 -33 -24 24 -18 114 7 105 8 -3
17 -1 21 5 3 6 -1 11 -9 11 -22 0 -20 17 2 23 30 8 33 7 38 -10z m-46 -198 c0
-8 -4 -15 -10 -15 -5 0 -10 7 -10 15 0 8 5 15 10 15 6 0 10 -7 10 -15z m-5883
-297 c-3 -8 -6 -5 -6 6 -1 11 2 17 5 13 3 -3 4 -12 1 -19z m-897 -468 c8 -5
11 -10 5 -10 -5 0 -17 5 -25 10 -8 5 -10 10 -5 10 6 0 17 -5 25 -10z m-73 -6
c-4 -4 3 -15 15 -25 11 -11 16 -19 10 -19 -7 0 -12 -6 -12 -14 0 -12 -28 -26
-55 -26 -18 0 -16 62 3 76 17 13 51 20 39 8z m38 -14 c3 -5 1 -10 -4 -10 -6 0
-11 5 -11 10 0 6 2 10 4 10 3 0 8 -4 11 -10z m928 -12 c25 -12 32 -36 9 -31
-5 1 -16 -4 -22 -12 -18 -22 -37 -18 -44 8 -10 36 -7 47 12 47 10 0 30 -6 45
-12z m-506 -60 c-3 -8 -6 -5 -6 6 -1 11 2 17 5 13 3 -3 4 -12 1 -19z m908
-187 c41 -25 114 -62 215 -111 51 -24 161 -89 170 -101 3 -3 21 -14 40 -24 19
-9 42 -23 50 -30 8 -7 32 -18 52 -24 45 -15 55 -26 25 -28 -12 -1 -27 -9 -33
-17 -13 -18 -74 -17 -96 2 -8 6 -18 9 -21 5 -4 -3 -13 0 -22 7 -24 20 -27 6
-5 -18 43 -46 18 -43 -65 8 -36 22 -68 40 -71 40 -9 0 -99 63 -102 72 -2 4
-10 8 -18 8 -8 0 -14 5 -14 11 0 6 -6 9 -14 6 -8 -3 -45 13 -83 37 -38 23 -78
46 -88 50 -16 6 -17 9 -5 16 12 8 11 10 -5 11 -11 1 -24 3 -30 4 -5 2 -15 3
-21 4 -17 2 -24 28 -8 28 8 0 14 -7 15 -16 0 -12 3 -10 8 4 5 11 7 23 4 28 -2
4 0 7 6 7 5 0 12 -6 14 -12 3 -7 6 1 6 17 1 17 5 26 9 20 4 -5 16 -11 27 -12
20 -1 20 -1 1 13 -11 8 -25 14 -32 14 -19 0 -64 26 -57 33 3 4 0 14 -8 23 -14
17 64 -21 156 -75z m-818 49 c18 -16 37 -46 43 -69 7 -26 23 -51 48 -70 30
-26 45 -31 88 -31 56 0 84 -7 84 -20 0 -5 -8 -11 -17 -13 -14 -4 -12 -5 5 -6
12 0 22 -6 22 -12 0 -5 -4 -8 -9 -5 -5 3 -11 -4 -15 -17 -3 -12 -1 -23 4 -25
16 -6 12 -39 -5 -46 -12 -4 -14 -16 -9 -53 3 -27 8 -51 10 -55 5 -8 -35 -78
-46 -78 -4 0 -5 11 -2 25 2 14 8 22 13 19 12 -7 22 20 16 43 -4 17 -5 16 -12
-2 -12 -27 -35 -50 -35 -35 0 7 -8 9 -19 5 -13 -4 -27 1 -40 14 -12 12 -23 21
-26 21 -7 0 -7 3 1 23 8 22 -3 34 -17 20 -20 -20 -35 -4 -31 32 2 20 0 41 -5
48 -6 6 -9 34 -8 60 1 27 -1 43 -5 37 -7 -12 -40 -3 -40 11 0 14 -33 49 -46
49 -8 0 -9 12 -4 40 4 22 3 40 -1 40 -5 0 -9 7 -9 15 0 8 5 15 11 15 5 0 8 -4
5 -9 -3 -5 1 -11 9 -15 20 -7 19 18 -1 49 -23 36 2 33 43 -5z m-517 -190 c0
-5 -5 -10 -11 -10 -5 0 -7 5 -4 10 3 6 8 10 11 10 2 0 4 -4 4 -10z m1200 -24
c0 -3 -4 -8 -10 -11 -5 -3 -10 -1 -10 4 0 6 5 11 10 11 6 0 10 -2 10 -4z m64
-48 c-4 -6 -3 -8 3 -5 10 6 43 -10 138 -69 22 -13 55 -32 73 -41 17 -9 32 -20
32 -25 0 -4 6 -8 14 -8 8 0 28 -11 43 -25 l28 -25 -30 15 c-16 8 -36 15 -42
15 -7 0 -13 5 -13 11 0 6 -6 9 -12 6 -7 -2 -24 5 -38 15 -23 18 -25 19 -31 1
-7 -17 -8 -17 -8 0 -1 19 -23 22 -53 6 -17 -9 -19 -8 -16 8 2 11 11 17 22 15
11 -2 16 1 14 10 -3 7 -14 13 -26 13 -11 0 -32 12 -45 25 -13 14 -43 36 -66
50 -49 29 -59 60 -11 35 18 -9 28 -21 24 -27z m616 27 c0 -8 -2 -15 -4 -15 -2
0 -6 7 -10 15 -3 8 -1 15 4 15 6 0 10 -7 10 -15z m-1343 -32 c-3 -10 -5 -4 -5
12 0 17 2 24 5 18 2 -7 2 -21 0 -30z m4913 17 c0 -5 -4 -10 -10 -10 -5 0 -10
5 -10 10 0 6 5 10 10 10 6 0 10 -4 10 -10z m-4145 -70 c3 -5 1 -10 -4 -10 -6
0 -11 5 -11 10 0 6 2 10 4 10 3 0 8 -4 11 -10z m498 -104 c9 0 17 -6 17 -13 0
-16 5 -16 32 -2 16 9 19 8 16 -3 -3 -7 -19 -14 -37 -16 -22 -2 -31 0 -26 7 3
6 -1 11 -10 11 -9 0 -13 -4 -10 -10 11 -17 -11 -11 -28 8 -19 21 -11 36 12 26
9 -4 24 -7 34 -8z m-143 -80 c-6 -6 -15 -4 -25 4 -23 19 -18 29 9 17 15 -7 21
-16 16 -21z m243 27 c-7 -2 -19 -2 -25 0 -7 3 -2 5 12 5 14 0 19 -2 13 -5z
m-1201 -28 c4 -20 3 -23 -8 -14 -11 9 -14 8 -14 -5 0 -9 -5 -16 -11 -16 -6 0
-8 7 -5 16 3 9 6 22 6 30 0 24 27 15 32 -11z m198 15 c0 -5 -12 -10 -26 -10
-14 0 -23 4 -19 10 3 6 15 10 26 10 10 0 19 -4 19 -10z m113 -17 c8 -5 10 -33
2 -33 -3 0 -11 5 -18 10 -7 6 -21 17 -32 25 -19 14 -18 15 10 9 17 -4 33 -9
38 -11z m-179 -11 c2 -4 -4 -9 -15 -9 -11 -1 -17 2 -14 8 7 11 22 12 29 1z
m84 2 c17 -5 21 -11 17 -25 -4 -13 -1 -19 9 -19 9 0 16 -4 16 -10 0 -5 -8 -10
-18 -10 -10 0 -23 -5 -29 -11 -17 -17 -60 0 -66 27 -3 15 0 24 8 24 7 0 15 7
19 15 6 17 11 18 44 9z m809 -14 l26 -20 -25 0 c-14 0 -33 9 -43 20 -17 19
-17 20 -1 20 10 0 29 -9 43 -20z m-1035 -32 c-7 -7 -12 -23 -13 -37 0 -15 -3
-20 -6 -13 -7 19 6 62 19 62 9 0 9 -3 0 -12z m727 -41 c7 -18 45 -46 69 -52
14 -3 60 -30 101 -59 120 -84 117 -83 140 -38 29 57 91 109 140 117 36 6 47 3
76 -19 18 -14 38 -26 43 -26 6 0 12 -3 14 -7 2 -5 24 -25 51 -46 26 -21 47
-41 47 -45 0 -4 -10 -18 -21 -32 l-21 -25 6 25 c3 14 1 32 -4 40 -7 10 -10 11
-10 3 0 -24 -16 -13 -39 28 -27 47 -76 75 -115 65 -14 -3 -39 -21 -54 -38 -15
-17 -34 -39 -43 -49 -17 -17 -39 -78 -59 -164 -14 -59 -15 -82 -6 -155 23
-182 25 -199 36 -255 5 -27 12 -65 15 -82 16 -102 16 -102 78 -233 17 -36 30
-75 29 -86 -2 -24 37 -41 49 -22 9 15 39 -7 39 -28 0 -8 5 -14 10 -14 6 0 10
5 10 12 0 6 9 2 20 -10 23 -25 26 -47 5 -39 -8 4 -17 2 -20 -3 -11 -18 -27
-10 -22 10 5 19 5 19 -34 0 -39 -21 -60 -46 -52 -66 2 -7 13 -10 23 -7 23 6
27 -12 5 -21 -19 -7 -20 -56 -1 -56 8 0 18 5 21 10 4 6 12 7 18 3 7 -4 27 -8
46 -8 36 -1 45 -11 56 -63 9 -45 -15 -72 -66 -72 -46 0 -109 35 -109 60 0 11
-6 23 -14 27 -20 12 -26 62 -9 72 20 11 12 47 -9 43 -17 -3 -20 5 -48 123 -6
27 -17 63 -25 80 -21 47 -44 134 -55 216 -18 117 -19 122 -29 158 -6 19 -8 38
-5 42 3 5 -3 30 -12 56 -19 55 -29 306 -12 336 7 15 2 21 -34 37 -52 24 -106
25 -155 5 -19 -8 -45 -15 -57 -15 -23 0 -71 46 -57 54 4 3 4 27 -1 53 -5 26
-11 60 -12 74 -1 14 -5 30 -8 35 -3 5 -9 31 -12 58 l-8 48 44 -23 c24 -13 45
-28 47 -32z m1221 -12 c0 -8 -4 -15 -10 -15 -5 0 -10 7 -10 15 0 8 5 15 10 15
6 0 10 -7 10 -15z m-1930 -100 c0 -5 -5 -3 -10 5 -5 8 -10 20 -10 25 0 6 5 3
10 -5 5 -8 10 -19 10 -25z m24 -50 c3 -8 1 -15 -4 -15 -6 0 -10 7 -10 15 0 8
2 15 4 15 2 0 6 -7 10 -15z m1204 -9 c27 4 37 -1 69 -33 65 -66 110 -150 146
-273 4 -15 -16 -50 -29 -50 -12 0 -14 -13 -10 -66 4 -52 10 -70 27 -85 24 -21
23 -29 -17 -144 -8 -23 -14 -48 -14 -58 0 -42 -40 2 -42 46 -1 35 -28 50 -28
15 0 -31 -38 -60 -83 -63 -23 -2 -44 -4 -46 -4 -10 -3 28 -35 62 -52 35 -19
38 -23 35 -57 -2 -20 -13 -47 -26 -61 l-22 -24 -25 23 c-14 13 -24 32 -23 41
2 10 -9 30 -24 46 -41 44 -68 100 -68 144 0 22 -7 50 -16 64 -15 23 -18 43
-30 190 -3 38 -10 73 -16 76 -21 13 13 196 39 206 7 3 13 11 13 18 0 6 9 20
19 29 11 10 17 24 14 32 -3 9 2 14 15 14 12 0 22 9 26 23 4 15 9 18 14 10 4
-7 20 -10 40 -7z m-371 -113 c-27 -8 -52 -12 -55 -8 -12 12 23 25 63 24 l40
-1 -48 -15z m5348 -134 c11 0 14 -3 7 -6 -16 -6 -72 16 -72 29 0 5 10 2 22 -6
12 -9 32 -16 43 -17z m-365 -89 c0 -5 -2 -10 -4 -10 -3 0 -8 5 -11 10 -3 6 -1
10 4 10 6 0 11 -4 11 -10z m577 4 c-3 -3 -12 -4 -19 -1 -8 3 -5 6 6 6 11 1 17
-2 13 -5z m-317 -104 c0 -5 -5 -10 -11 -10 -5 0 -7 5 -4 10 3 6 8 10 11 10 2
0 4 -4 4 -10z m60 -120 c0 -5 -7 -7 -15 -4 -8 4 -15 8 -15 10 0 2 7 4 15 4 8
0 15 -4 15 -10z m-4807 -330 c-3 -11 2 -31 11 -45 19 -30 22 -70 4 -58 -7 4
-26 6 -42 4 -20 -2 -26 1 -21 10 5 7 8 28 7 47 -2 37 12 62 33 62 8 0 11 -8 8
-20z m364 -192 c-3 -8 -6 -5 -6 6 -1 11 2 17 5 13 3 -3 4 -12 1 -19z m-950
-434 c-3 -3 -12 -4 -19 -1 -8 3 -5 6 6 6 11 1 17 -2 13 -5z m5443 -754 c0 -18
-3 -19 -20 -10 -22 12 -18 30 6 30 8 0 14 -9 14 -20z m-70 -631 c0 -5 -4 -9
-10 -9 -5 0 -10 7 -10 16 0 8 5 12 10 9 6 -3 10 -10 10 -16z m-1175 -148 c10
-17 -9 -20 -30 -5 -18 14 -18 14 2 14 12 0 24 -4 28 -9z m-1295 -331 c0 -5 -2
-10 -4 -10 -3 0 -8 5 -11 10 -3 6 -1 10 4 10 6 0 11 -4 11 -10z m1617 4 c-3
-3 -12 -4 -19 -1 -8 3 -5 6 6 6 11 1 17 -2 13 -5z m123 -274 c0 -5 -4 -10 -10
-10 -5 0 -10 5 -10 10 0 6 5 10 10 10 6 0 10 -4 10 -10z m-10 -80 c0 -12 -28
-25 -36 -17 -9 9 6 27 22 27 8 0 14 -5 14 -10z m-1114 -91 c9 -15 -18 -40 -47
-41 -13 -1 -29 -6 -36 -11 -13 -10 -33 -1 -33 14 0 10 75 47 97 48 6 1 15 -4
19 -10z"/>
<path d="M7100 7453 c0 -10 5 -25 10 -33 8 -12 10 -9 10 12 0 15 -4 30 -10 33
-5 3 -10 -2 -10 -12z"/>
<path d="M6550 7090 c-13 -9 -13 -11 0 -20 20 -13 87 -13 95 1 9 14 7 15 -40
22 -22 4 -47 2 -55 -3z"/>
<path d="M6926 7081 c-4 -5 -2 -20 3 -33 9 -21 10 -21 10 10 1 32 -3 39 -13
23z"/>
<path d="M445 5640 c-3 -5 1 -10 10 -10 9 0 13 5 10 10 -3 6 -8 10 -10 10 -2
0 -7 -4 -10 -10z"/>
<path d="M1818 5343 c7 -3 16 -2 19 1 4 3 -2 6 -13 5 -11 0 -14 -3 -6 -6z"/>
<path d="M2306 5095 c-11 -8 -15 -15 -9 -15 6 0 16 7 23 15 16 19 11 19 -14 0z"/>
<path d="M1000 5359 c0 -11 5 -17 10 -14 6 3 10 13 10 21 0 8 -4 14 -10 14 -5
0 -10 -9 -10 -21z"/>
<path d="M1018 5323 c7 -3 16 -2 19 1 4 3 -2 6 -13 5 -11 0 -14 -3 -6 -6z"/>
<path d="M1231 5114 c0 -11 3 -14 6 -6 3 7 2 16 -1 19 -3 4 -6 -2 -5 -13z"/>
<path d="M1200 5066 c-7 -15 -9 -32 -5 -43 7 -15 9 -13 15 13 4 17 10 36 14
42 4 7 3 12 -2 12 -5 0 -14 -11 -22 -24z"/>
<path d="M1155 5060 c4 -6 11 -8 16 -5 14 9 11 15 -7 15 -8 0 -12 -5 -9 -10z"/>
<path d="M2375 3480 c3 -5 10 -10 16 -10 5 0 9 5 9 10 0 6 -7 10 -16 10 -8 0
-12 -4 -9 -10z"/>
<path d="M1691 8351 c-16 -10 -6 -31 15 -31 8 0 14 9 14 20 0 22 -7 25 -29 11z"/>
<path d="M7622 8316 c1 -10 8 -17 13 -17 15 1 12 24 -3 29 -9 3 -13 -2 -10
-12z"/>
<path d="M7592 8300 c0 -14 2 -19 5 -12 2 6 2 18 0 25 -3 6 -5 1 -5 -13z"/>
<path d="M1724 8273 c3 -18 34 -33 54 -25 9 3 8 8 -5 17 -33 22 -51 25 -49 8z"/>
<path d="M4692 8122 c-12 -2 -20 -8 -17 -13 7 -11 82 -11 110 1 19 7 18 8 -5
13 -25 5 -45 5 -88 -1z"/>
<path d="M4535 8100 c28 -12 37 -12 30 0 -3 6 -16 10 -28 9 -21 0 -21 -1 -2
-9z"/>
<path d="M4168 8093 c7 -3 16 -2 19 1 4 3 -2 6 -13 5 -11 0 -14 -3 -6 -6z"/>
<path d="M1090 7790 c-17 -4 -24 -13 -23 -26 6 -66 34 -248 39 -256 4 -6 8
-53 10 -105 2 -68 7 -100 18 -112 14 -15 14 -19 0 -33 -14 -14 -14 -19 -1 -44
8 -16 18 -58 22 -94 9 -88 12 -97 38 -103 12 -3 36 -11 53 -18 30 -12 33 -11
66 22 30 31 34 40 30 74 -2 22 -9 46 -14 52 -6 7 -8 20 -4 28 3 9 -1 18 -9 22
-10 3 -13 12 -10 24 4 11 2 19 -4 19 -6 0 -11 -5 -11 -12 0 -6 -2 -9 -5 -6 -9
8 6 38 16 32 5 -3 9 6 9 20 0 14 -5 26 -12 26 -9 0 -9 3 -1 11 12 12 6 49 -8
49 -5 0 -9 7 -9 16 0 8 5 12 11 8 8 -4 8 0 0 15 -13 23 -36 29 -28 7 3 -8 2
-27 -2 -43 l-8 -28 -12 24 c-7 12 -11 32 -8 42 3 10 1 22 -4 25 -19 11 -8 25
19 22 24 -3 27 0 30 32 4 48 -33 287 -47 304 -12 14 -94 17 -141 6z m217 -732
c-3 -8 -6 -5 -6 6 -1 11 2 17 5 13 3 -3 4 -12 1 -19z"/>
<path d="M4046 7671 c4 -19 0 -38 -10 -52 -19 -28 -21 -61 -3 -58 27 3 38 -2
35 -18 -2 -12 3 -17 15 -15 9 2 17 -2 17 -8 0 -13 137 -13 145 0 12 19 -14 38
-59 44 -38 6 -44 10 -50 37 -4 23 -12 31 -35 35 -21 5 -33 15 -40 35 -13 38
-22 37 -15 0z"/>
<path d="M3968 7653 c7 -3 16 -2 19 1 4 3 -2 6 -13 5 -11 0 -14 -3 -6 -6z"/>
<path d="M5255 7648 c-55 -4 -112 -4 -126 -2 -34 6 -70 -8 -61 -24 5 -7 42
-14 98 -17 49 -3 103 -8 120 -10 17 -3 43 -1 58 5 14 5 65 12 114 16 87 6 115
15 91 29 -16 10 -168 12 -294 3z"/>
<path d="M5630 7645 c0 -8 7 -15 15 -15 8 0 15 7 15 15 0 8 -7 15 -15 15 -8 0
-15 -7 -15 -15z"/>
<path d="M4570 7640 c0 -5 7 -10 15 -10 8 0 15 5 15 10 0 6 -7 10 -15 10 -8 0
-15 -4 -15 -10z"/>
<path d="M3596 7525 c-11 -8 -27 -15 -37 -15 -25 0 -32 -28 -9 -40 10 -5 44
-10 74 -10 38 0 56 -4 56 -12 0 -7 5 -5 11 5 6 10 22 17 42 17 18 0 41 7 51
15 17 13 18 15 3 15 -9 0 -17 4 -17 9 0 5 -21 11 -47 14 -27 3 -61 8 -78 11
-19 4 -37 1 -49 -9z"/>
<path d="M5322 7488 c-7 -7 -12 -16 -12 -20 0 -12 28 -10 36 3 10 17 -10 31
-24 17z"/>
<path d="M5390 7401 c-8 -6 -35 -13 -60 -16 -56 -8 -79 -19 -56 -28 9 -4 13
-13 10 -21 -6 -16 21 -27 77 -29 26 -2 35 4 48 28 10 17 31 36 49 44 18 8 32
18 32 23 0 11 -81 10 -100 -1z"/>
<path d="M953 7383 c-8 -3 -13 -24 -13 -55 0 -46 2 -49 23 -46 18 2 22 10 23
39 1 20 4 41 7 47 5 7 -17 26 -26 21 -1 0 -8 -3 -14 -6z"/>
<path d="M805 7263 c-27 -7 -36 -23 -24 -45 8 -14 22 -18 72 -18 75 0 107 -8
107 -26 0 -7 9 -18 19 -24 28 -14 53 13 49 54 -3 30 -5 31 -61 37 -32 4 -64
12 -70 18 -11 11 -55 13 -92 4z"/>
<path d="M2240 7055 c0 -16 9 -19 34 -9 25 9 19 24 -9 24 -16 0 -25 -6 -25
-15z"/>
<path d="M1045 7031 c-7 -12 12 -24 25 -16 11 7 4 25 -10 25 -5 0 -11 -4 -15
-9z"/>
<path d="M1790 7015 c0 -18 5 -25 20 -25 11 0 20 5 20 11 0 6 9 8 20 4 16 -5
20 -2 20 14 0 18 -6 21 -40 21 -36 0 -40 -2 -40 -25z"/>
<path d="M1154 6377 c3 -10 6 -28 6 -40 0 -15 3 -18 11 -10 8 8 6 19 -6 39 -9
16 -14 21 -11 11z"/>
<path d="M1280 6345 c0 -9 6 -12 15 -9 8 4 15 10 15 15 0 5 -7 9 -15 9 -8 0
-15 -7 -15 -15z"/>
<path d="M1220 6314 c0 -17 22 -14 28 4 2 7 -3 12 -12 12 -9 0 -16 -7 -16 -16z"/>
<path d="M1360 6309 c0 -5 5 -7 10 -4 6 3 10 8 10 11 0 2 -4 4 -10 4 -5 0 -10
-5 -10 -11z"/>
<path d="M1310 6299 c0 -5 5 -7 10 -4 6 3 10 8 10 11 0 2 -4 4 -10 4 -5 0 -10
-5 -10 -11z"/>
<path d="M1415 6260 c-3 -5 1 -10 9 -10 9 0 16 5 16 10 0 6 -4 10 -9 10 -6 0
-13 -4 -16 -10z"/>
<path d="M2055 5420 c3 -5 10 -10 16 -10 5 0 9 5 9 10 0 6 -7 10 -16 10 -8 0
-12 -4 -9 -10z"/>
<path d="M2270 5294 c0 -8 5 -12 10 -9 6 3 10 10 10 16 0 5 -4 9 -10 9 -5 0
-10 -7 -10 -16z"/>
<path d="M3880 5300 l-35 -7 43 -2 c27 0 41 3 37 9 -3 6 -7 9 -8 9 -1 -1 -18
-5 -37 -9z"/>
<path d="M3885 5250 c-11 -18 6 -32 31 -26 17 5 24 2 24 -9 0 -8 5 -15 11 -15
6 0 8 7 5 16 -3 9 -6 22 -6 30 0 16 -55 20 -65 4z"/>
<path d="M3525 5160 c-3 -5 1 -10 9 -10 9 0 16 5 16 10 0 6 -4 10 -9 10 -6 0
-13 -4 -16 -10z"/>
<path d="M4076 5129 c3 -6 16 -8 28 -5 11 2 30 -2 40 -10 25 -18 36 -18 36 0
0 18 -22 26 -71 26 -26 0 -38 -4 -33 -11z"/>
<path d="M4228 5103 c6 -2 18 -2 25 0 6 3 1 5 -13 5 -14 0 -19 -2 -12 -5z"/>
<path d="M4508 5073 c7 -3 16 -2 19 1 4 3 -2 6 -13 5 -11 0 -14 -3 -6 -6z"/>
<path d="M6307 5000 c-3 -11 -1 -23 4 -26 5 -3 9 6 9 20 0 31 -6 34 -13 6z"/>
<path d="M6320 4931 c0 -25 6 -27 13 -6 4 8 2 17 -3 20 -6 4 -10 -3 -10 -14z"/>
<path d="M5920 4849 c0 -5 5 -7 10 -4 6 3 10 8 10 11 0 2 -4 4 -10 4 -5 0 -10
-5 -10 -11z"/>
<path d="M5776 4840 c-16 -5 -33 -7 -37 -4 -4 2 -10 0 -14 -6 -3 -6 0 -13 9
-16 20 -8 97 9 97 21 0 14 -20 15 -55 5z"/>
<path d="M6122 4836 c7 -8 17 -12 22 -9 4 3 2 9 -5 14 -22 13 -31 11 -17 -5z"/>
<path d="M6322 4838 c3 -7 13 -15 22 -16 12 -3 17 1 14 10 -3 7 -13 15 -22 16
-12 3 -17 -1 -14 -10z"/>
<path d="M5995 4819 c-9 -14 -2 -20 14 -10 8 6 9 11 3 15 -6 3 -14 1 -17 -5z"/>
<path d="M6346 4803 c-12 -12 -5 -23 14 -23 11 0 20 4 20 9 0 11 -26 22 -34
14z"/>
<path d="M3865 4785 c-149 -51 -247 -77 -293 -76 -40 1 -53 -2 -49 -11 2 -7 0
-20 -4 -30 -6 -11 -4 -18 6 -22 8 -3 15 -14 15 -25 0 -25 25 -33 92 -30 29 1
63 -1 76 -5 17 -6 27 -3 36 10 18 24 64 24 110 0 29 -15 41 -17 44 -8 3 10 7
10 20 0 11 -9 14 -9 9 -1 -5 7 11 4 36 -7 28 -12 69 -20 111 -21 61 -1 70 1
97 27 29 28 42 58 43 99 1 32 36 29 96 -10 67 -42 91 -89 60 -116 -24 -21 -16
-29 30 -29 21 0 57 -7 80 -15 24 -8 46 -13 49 -10 3 4 -5 26 -18 51 -25 46
-103 117 -156 139 -112 49 -148 61 -232 79 -63 14 -229 21 -258 11z m41 -71
c-3 -9 -6 -26 -6 -39 0 -15 -5 -22 -15 -21 -46 7 -45 70 1 74 20 1 25 -2 20
-14z m258 -10 c27 -10 18 -23 -24 -35 -30 -9 -44 -9 -52 -1 -26 26 31 53 76
36z"/>
<path d="M6305 4760 c3 -5 8 -10 11 -10 2 0 4 5 4 10 0 6 -5 10 -11 10 -5 0
-7 -4 -4 -10z"/>
<path d="M5690 4510 c-50 -12 -163 -64 -183 -84 -29 -29 -20 -41 33 -43 27 -1
84 -11 126 -23 42 -11 102 -23 133 -27 57 -5 58 -5 89 33 19 22 32 50 32 66 0
38 15 43 68 23 75 -28 95 -51 90 -105 -5 -45 -4 -46 26 -48 17 -2 49 -12 72
-22 54 -27 64 -25 64 9 0 40 -58 111 -118 144 -130 71 -317 104 -432 77z m164
-49 c28 -6 29 -7 12 -23 -16 -17 -66 -25 -78 -12 -3 3 -4 14 -1 25 5 20 16 21
67 10z m-213 -28 c13 -36 -1 -49 -35 -31 l-26 14 20 22 c26 28 28 28 41 -5z"/>
<path d="M6613 4132 c-23 -3 -32 -35 -14 -46 15 -9 34 -173 23 -191 -4 -5 -7
-32 -8 -60 -1 -50 -47 -188 -104 -311 -16 -33 -32 -74 -35 -90 -7 -27 -6 -28
8 -9 30 40 104 197 144 305 39 104 54 170 55 248 1 129 -14 163 -69 154z"/>
<path d="M4354 3881 c-75 -55 -192 -192 -191 -224 0 -16 2 -16 24 -2 26 18 27
16 38 -48 12 -74 45 -145 71 -151 13 -4 24 -12 25 -19 1 -24 59 -60 99 -60 32
0 40 -4 42 -21 2 -14 9 -20 21 -18 10 2 25 -2 32 -8 10 -8 19 -8 34 -1 14 8
20 8 23 -1 3 -7 11 -9 24 -3 17 7 17 8 2 12 -10 3 -18 9 -18 14 0 6 9 7 20 4
14 -5 20 -2 20 9 0 9 7 16 15 16 7 0 18 8 24 17 8 14 12 15 25 4 9 -7 16 -19
16 -25 0 -12 56 -53 66 -48 4 2 10 -1 13 -6 6 -10 44 -15 86 -13 18 1 17 3 -6
19 -37 24 -59 48 -59 64 -1 17 -68 68 -90 68 -9 0 -20 4 -26 10 -11 11 -246
16 -264 5 -6 -4 -21 5 -34 20 -17 20 -29 25 -44 21 -19 -6 -21 -3 -21 31 1 42
-3 62 -14 80 -4 6 -3 23 2 36 7 18 7 27 -2 30 -9 3 -9 8 1 18 6 7 12 23 12 36
0 17 6 23 21 23 16 0 20 5 16 20 -3 13 2 25 15 34 18 13 18 15 3 24 -15 8 -14
11 9 30 41 32 13 35 -30 3z"/>
<path d="M2998 3744 c3 -17 8 -22 15 -15 11 11 3 41 -11 41 -5 0 -7 -12 -4
-26z"/>
<path d="M2990 3505 c0 -10 7 -15 18 -13 21 4 19 22 -2 26 -10 2 -16 -3 -16
-13z"/>
<path d="M5142 3385 c-14 -10 -21 -25 -20 -40 2 -20 8 -25 30 -25 15 0 30 -4
33 -10 8 -13 92 -13 100 1 4 6 13 8 20 5 26 -10 33 15 11 39 -42 45 -130 60
-174 30z"/>
<path d="M4360 3007 c-5 -6 -122 -18 -157 -18 -12 1 -43 -10 -69 -24 -26 -14
-60 -25 -75 -25 -15 0 -31 -5 -34 -10 -4 -6 -11 -8 -16 -5 -5 4 -9 -1 -9 -9 0
-8 5 -18 10 -21 6 -3 10 -15 10 -27 0 -11 8 -32 19 -46 10 -15 22 -38 26 -52
4 -14 10 -27 14 -30 38 -31 81 -125 60 -132 -15 -5 100 -124 117 -120 8 2 13
-3 12 -10 -2 -9 12 -13 48 -14 28 0 58 -4 67 -7 12 -4 17 -1 17 10 0 15 2 14
14 -2 13 -18 14 -18 25 3 16 30 14 35 -14 30 -23 -5 -25 -2 -25 29 0 27 4 34
15 30 8 -4 17 -2 20 3 8 13 58 13 72 -1 8 -8 17 -8 31 0 11 6 32 11 45 11 14
0 30 7 37 15 7 8 16 12 21 10 4 -3 20 -3 34 1 45 11 12 25 -71 30 -104 7 -124
11 -124 29 0 10 12 15 38 16 54 2 86 -2 97 -11 6 -4 27 -11 49 -14 21 -4 47
-12 56 -19 14 -8 22 -8 33 1 20 17 214 35 237 22 13 -7 27 -5 47 5 31 16 63
20 63 7 0 -20 -119 -57 -172 -54 -15 1 -29 -2 -33 -8 -3 -5 1 -10 9 -10 11 0
16 -9 16 -26 0 -20 3 -24 13 -17 6 5 37 11 67 12 76 3 93 6 108 15 18 11 35
-3 22 -19 -6 -8 -7 -21 -2 -35 6 -16 11 -19 16 -12 4 7 12 10 17 7 5 -4 12 1
15 10 4 10 13 13 25 10 14 -5 34 10 79 56 33 34 60 68 60 75 0 7 8 19 18 26
11 7 19 22 19 33 1 27 -36 65 -62 65 -12 0 -33 8 -46 18 -49 36 -194 71 -202
49 -3 -9 -8 -9 -18 1 -7 6 -21 12 -31 12 -9 0 -26 10 -38 22 -16 18 -20 19
-20 5 0 -10 -5 -14 -15 -11 -8 4 -12 10 -9 15 3 5 0 17 -5 26 -9 16 -10 14
-11 -8 0 -21 -5 -27 -22 -27 -13 0 -49 -2 -80 -5 -46 -4 -58 -2 -58 9 0 8 -7
14 -15 14 -7 0 -18 6 -22 13 -9 14 -23 17 -113 22 -36 1 -67 4 -70 5 -3 1 -9
2 -14 1 -21 -4 -46 12 -46 29 0 14 -7 19 -27 18 -16 0 -42 2 -58 6 -17 4 -32
5 -35 3z m150 -122 c9 -10 17 -12 24 -6 8 7 43 3 101 -10 50 -11 101 -22 115
-23 14 -1 45 -5 70 -9 25 -3 83 -11 130 -17 56 -8 88 -17 96 -28 7 -9 23 -17
36 -17 31 0 30 -29 -2 -33 -13 -2 -37 -15 -53 -28 -19 -16 -41 -24 -67 -24
-25 0 -40 -5 -44 -16 -5 -13 -21 -15 -100 -11 -52 3 -98 7 -103 10 -4 2 -43 8
-85 12 -69 6 -80 10 -100 35 -18 23 -26 27 -42 18 -22 -12 -89 6 -108 29 -8
10 -23 12 -56 7 -41 -6 -48 -4 -67 20 -18 22 -25 25 -51 17 -41 -12 -55 -1
-57 40 -2 33 0 34 37 37 21 2 43 -1 49 -7 7 -7 16 -7 30 1 11 5 38 8 61 6 23
-3 50 -1 61 3 36 14 112 10 125 -6z m-95 -206 c11 -17 2 -18 -25 -4 -24 14
-24 14 -3 15 12 0 25 -5 28 -11z"/>
<path d="M4580 2984 c-24 -15 -24 -15 21 -10 32 4 52 1 65 -9 20 -15 64 -20
64 -7 0 10 -48 30 -90 36 -23 4 -44 1 -60 -10z"/>
<path d="M4870 2940 c0 -6 7 -10 15 -10 8 0 15 2 15 4 0 2 -7 6 -15 10 -8 3
-15 1 -15 -4z"/>
<path d="M2130 2620 c0 -5 9 -9 20 -7 31 5 36 17 7 17 -15 0 -27 -4 -27 -10z"/>
<path d="M4751 2606 c12 -10 59 -15 59 -6 0 5 -14 10 -32 10 -17 0 -29 -2 -27
-4z"/>
<path d="M2355 2560 c3 -5 10 -10 16 -10 5 0 9 5 9 10 0 6 -7 10 -16 10 -8 0
-12 -4 -9 -10z"/>
<path d="M2335 2510 c-8 -13 14 -42 25 -35 10 6 1 45 -11 45 -4 0 -11 -5 -14
-10z"/>
<path d="M2575 2390 c-3 -5 -2 -10 4 -10 5 0 13 5 16 10 3 6 2 10 -4 10 -5 0
-13 -4 -16 -10z"/>
<path d="M1798 2100 c-10 -15 -24 -20 -55 -20 -24 0 -43 -4 -43 -10 0 -5 12
-10 28 -10 26 -1 26 -1 7 -16 -20 -15 -19 -15 5 -12 14 2 24 9 23 16 -2 6 4
12 12 12 8 0 15 -7 15 -15 0 -9 5 -21 10 -28 39 -46 50 -61 50 -69 0 -5 7 -8
16 -6 12 2 29 -19 56 -71 34 -64 76 -116 86 -106 2 2 -28 65 -67 141 -39 75
-71 143 -71 151 0 21 -31 63 -46 63 -8 0 -19 -9 -26 -20z"/>
<path d="M1616 2085 c4 -10 0 -15 -11 -15 -9 0 -13 -5 -10 -10 4 -6 16 -8 28
-4 30 9 32 11 17 29 -16 19 -31 19 -24 0z"/>
<path d="M1463 2078 c-13 -6 -23 -15 -23 -19 0 -5 -7 -6 -15 -3 -9 4 -15 0
-15 -9 0 -21 20 -33 30 -17 4 7 14 11 21 8 8 -3 24 8 37 23 21 26 22 29 5 28
-10 0 -28 -5 -40 -11z"/>
<path d="M1538 2053 c7 -3 16 -2 19 1 4 3 -2 6 -13 5 -11 0 -14 -3 -6 -6z"/>
<path d="M1670 2040 c0 -5 5 -10 11 -10 5 0 7 5 4 10 -3 6 -8 10 -11 10 -2 0
-4 -4 -4 -10z"/>
<path d="M1410 1976 c0 -2 9 -6 20 -9 11 -3 20 -1 20 4 0 5 -9 9 -20 9 -11 0
-20 -2 -20 -4z"/>
<path d="M2665 1899 c-10 -15 3 -25 16 -12 7 7 7 13 1 17 -6 3 -14 1 -17 -5z"/>
<path d="M675 1880 c-27 -30 -12 -34 15 -5 13 14 19 25 13 25 -5 0 -18 -9 -28
-20z"/>
<path d="M2190 1871 c0 -5 7 -14 15 -21 16 -14 18 -10 9 14 -6 17 -24 22 -24
7z"/>
<path d="M150 1859 c0 -5 5 -7 10 -4 6 3 10 8 10 11 0 2 -4 4 -10 4 -5 0 -10
-5 -10 -11z"/>
<path d="M2655 1841 c-8 -15 3 -31 21 -31 9 0 14 7 12 17 -4 20 -24 28 -33 14z"/>
<path d="M126 1815 c-3 -8 -3 -22 0 -30 5 -12 8 -12 20 0 8 7 14 21 14 29 0
20 -26 21 -34 1z"/>
<path d="M306 1805 c-3 -8 -14 -15 -24 -15 -10 0 -24 -6 -31 -12 -10 -11 -11
-10 -6 3 8 21 -20 32 -46 19 -10 -6 -19 -20 -19 -30 0 -16 6 -20 28 -19 56 3
83 -1 76 -12 -4 -7 2 -9 17 -7 16 2 24 9 23 21 -1 11 5 17 20 17 16 0 18 2 7
9 -7 5 -11 13 -7 19 3 5 -1 13 -10 16 -21 8 -21 8 -28 -9z"/>
<path d="M380 1751 c-33 -9 -40 -41 -9 -41 20 0 48 24 49 43 0 8 -5 8 -40 -2z"/>
<path d="M470 1730 c0 -5 5 -10 11 -10 5 0 7 5 4 10 -3 6 -8 10 -11 10 -2 0
-4 -4 -4 -10z"/>
<path d="M477 1696 c-4 -10 -1 -13 8 -9 8 3 12 9 9 14 -7 12 -11 11 -17 -5z"/>
<path d="M543 1667 c5 -17 93 -30 117 -17 35 19 22 26 -51 28 -50 1 -69 -2
-66 -11z"/>
<path d="M2081 1634 c12 -13 26 -24 31 -24 15 0 -16 39 -35 44 -17 4 -17 2 4
-20z"/>
<path d="M680 1631 c0 -5 14 -11 31 -15 45 -9 65 -8 54 3 -14 12 -85 22 -85
12z"/>
<path d="M0 1620 c0 -5 5 -10 10 -10 6 0 10 5 10 10 0 6 -4 10 -10 10 -5 0
-10 -4 -10 -10z"/>
<path d="M1414 1555 c-8 -13 -13 -29 -9 -35 7 -12 26 9 38 43 9 26 -10 21 -29
-8z"/>
<path d="M2060 1550 c0 -5 7 -10 15 -10 8 0 15 5 15 10 0 6 -7 10 -15 10 -8 0
-15 -4 -15 -10z"/>
<path d="M2160 1534 c1 -13 50 -71 50 -59 0 6 -11 23 -25 39 -14 16 -25 25
-25 20z"/>
<path d="M5866 1432 c-10 -16 1 -32 22 -32 11 0 13 3 6 8 -6 4 -13 14 -16 22
-3 10 -6 11 -12 2z"/>
<path d="M1470 1362 c0 -13 41 -43 53 -39 6 2 2 12 -11 25 -22 22 -42 29 -42
14z"/>
<path d="M6426 1315 c4 -8 8 -15 10 -15 2 0 4 7 4 15 0 8 -4 15 -10 15 -5 0
-7 -7 -4 -15z"/>
<path d="M2670 1260 c-11 -7 -12 -12 -4 -20 8 -8 14 -7 23 4 14 17 1 28 -19
16z"/>
<path d="M670 1250 c0 -5 5 -10 10 -10 6 0 10 5 10 10 0 6 -4 10 -10 10 -5 0
-10 -4 -10 -10z"/>
<path d="M2670 1197 c0 -13 39 -41 47 -34 6 6 -28 47 -39 47 -5 0 -8 -6 -8
-13z"/>
<path d="M3160 1200 c0 -5 5 -10 10 -10 6 0 10 5 10 10 0 6 -4 10 -10 10 -5 0
-10 -4 -10 -10z"/>
<path d="M3745 1170 c-3 -5 -2 -10 4 -10 5 0 13 5 16 10 3 6 2 10 -4 10 -5 0
-13 -4 -16 -10z"/>
<path d="M3160 1149 c0 -13 29 -43 36 -36 7 6 -18 47 -28 47 -5 0 -8 -5 -8
-11z"/>
<path d="M2495 1140 c3 -5 8 -10 11 -10 2 0 4 5 4 10 0 6 -5 10 -11 10 -5 0
-7 -4 -4 -10z"/>
<path d="M3740 1116 c0 -7 6 -19 14 -25 21 -17 30 4 10 23 -19 20 -24 20 -24
2z"/>
<path d="M2515 1110 c3 -5 8 -10 11 -10 2 0 4 5 4 10 0 6 -5 10 -11 10 -5 0
-7 -4 -4 -10z"/>
<path d="M5694 1110 c-7 -7 -5 -32 7 -78 10 -37 18 -87 18 -112 1 -43 2 -44
14 -20 8 14 18 34 25 45 23 43 31 84 21 119 -13 47 -59 72 -85 46z"/>
<path d="M1710 1000 c0 -5 5 -10 10 -10 6 0 10 5 10 10 0 6 -4 10 -10 10 -5 0
-10 -4 -10 -10z"/>
<path d="M2630 1001 c0 -5 5 -13 10 -16 6 -3 10 -2 10 4 0 5 -4 13 -10 16 -5
3 -10 2 -10 -4z"/>
<path d="M4518 1003 c7 -3 16 -2 19 1 4 3 -2 6 -13 5 -11 0 -14 -3 -6 -6z"/>
<path d="M4578 989 c-14 -11 -32 -18 -38 -17 -7 2 -15 -3 -17 -9 -3 -7 2 -13
10 -13 8 0 20 -7 27 -15 14 -17 30 -20 30 -5 0 6 -7 10 -15 10 -27 0 -15 25
23 47 20 12 30 22 22 22 -8 0 -27 -9 -42 -20z"/>
<path d="M0 896 l0 -55 85 -40 c47 -23 85 -45 85 -49 0 -4 9 -13 20 -20 11 -7
20 -8 20 -3 0 11 -50 59 -102 100 -34 26 -36 29 -20 44 15 16 15 17 0 17 -10
0 -21 6 -25 13 -4 7 -20 20 -35 30 l-28 17 0 -54z"/>
<path d="M2716 927 c3 -10 9 -15 12 -12 3 3 0 11 -7 18 -10 9 -11 8 -5 -6z"/>
<path d="M2780 856 c14 -13 26 -22 28 -21 8 7 -24 45 -38 45 -10 0 -7 -7 10
-24z"/>
<path d="M1250 835 c0 -8 5 -15 10 -15 6 0 10 7 10 15 0 8 -4 15 -10 15 -5 0
-10 -7 -10 -15z"/>
<path d="M180 831 c0 -10 62 -41 82 -41 21 1 -41 50 -63 50 -10 0 -19 -4 -19
-9z"/>
<path d="M2825 820 c3 -5 8 -10 11 -10 2 0 4 5 4 10 0 6 -5 10 -11 10 -5 0 -7
-4 -4 -10z"/>
<path d="M2086 811 c-3 -5 0 -11 8 -14 15 -6 26 1 26 15 0 11 -27 10 -34 -1z"/>
<path d="M5640 810 c0 -5 5 -10 11 -10 5 0 7 5 4 10 -3 6 -8 10 -11 10 -2 0
-4 -4 -4 -10z"/>
<path d="M2070 751 c0 -11 5 -23 10 -26 6 -4 10 5 10 19 0 14 -4 26 -10 26 -5
0 -10 -9 -10 -19z"/>
<path d="M370 740 c45 -25 61 -25 31 0 -13 11 -33 20 -45 20 -17 -1 -14 -4 14
-20z"/>
<path d="M230 715 c0 -3 15 -20 33 -38 64 -65 136 -153 146 -179 6 -16 21 -30
36 -34 14 -3 25 -12 25 -20 0 -8 5 -14 10 -14 6 0 8 -15 4 -40 -5 -32 -4 -40
9 -40 9 0 19 5 22 10 3 6 15 10 26 10 23 0 23 3 5 38 -33 63 -136 176 -240
263 -16 13 -34 30 -42 37 -13 12 -34 17 -34 7z m300 -325 c0 -5 -4 -10 -10
-10 -5 0 -10 5 -10 10 0 6 5 10 10 10 6 0 10 -4 10 -10z"/>
<path d="M475 675 c28 -24 56 -44 63 -45 6 0 12 -4 12 -8 0 -15 37 -52 44 -45
4 4 11 1 17 -7 7 -11 8 -6 3 15 -15 64 -22 75 -53 75 -16 0 -33 5 -36 10 -6 9
-82 50 -94 50 -3 0 17 -20 44 -45z"/>
<path d="M5580 695 c-13 -14 -21 -27 -18 -30 2 -3 15 6 28 20 13 14 21 27 18
30 -2 3 -15 -6 -28 -20z"/>
<path d="M1898 623 c7 -3 16 -2 19 1 4 3 -2 6 -13 5 -11 0 -14 -3 -6 -6z"/>
<path d="M5545 620 c-3 -5 -1 -10 4 -10 6 0 11 5 11 10 0 6 -2 10 -4 10 -3 0
-8 -4 -11 -10z"/>
<path d="M3275 610 c-3 -5 -1 -10 4 -10 6 0 11 5 11 10 0 6 -2 10 -4 10 -3 0
-8 -4 -11 -10z"/>
<path d="M2721 554 c0 -11 3 -14 6 -6 3 7 2 16 -1 19 -3 4 -6 -2 -5 -13z"/>
<path d="M3290 566 c0 -2 7 -9 15 -16 9 -7 15 -8 15 -2 0 5 -7 12 -15 16 -8 3
-15 4 -15 2z"/>
<path d="M645 500 c3 -5 8 -10 11 -10 2 0 4 5 4 10 0 6 -5 10 -11 10 -5 0 -7
-4 -4 -10z"/>
<path d="M645 470 c-3 -5 -2 -10 3 -10 6 0 13 -15 16 -33 3 -19 13 -42 22 -53
15 -18 15 -18 9 6 -3 14 -8 32 -9 40 -11 54 -27 73 -41 50z"/>
<path d="M3760 445 c7 -9 15 -13 17 -11 7 7 -7 26 -19 26 -6 0 -6 -6 2 -15z"/>
<path d="M410 400 c0 -5 7 -10 15 -10 8 0 15 5 15 10 0 6 -7 10 -15 10 -8 0
-15 -4 -15 -10z"/>
<path d="M3490 390 c0 -5 16 -10 35 -10 19 0 35 5 35 10 0 6 -16 10 -35 10
-19 0 -35 -4 -35 -10z"/>
<path d="M1810 360 c0 -11 5 -20 10 -20 6 0 10 9 10 20 0 11 -4 20 -10 20 -5
0 -10 -9 -10 -20z"/>
<path d="M3600 350 c0 -5 4 -10 8 -10 4 0 14 -16 21 -35 13 -38 33 -40 24 -2
-10 37 -53 76 -53 47z"/>
<path d="M721 224 c0 -11 3 -14 6 -6 3 7 2 16 -1 19 -3 4 -6 -2 -5 -13z"/>
<path d="M170 170 c0 -11 11 -47 25 -80 14 -33 25 -66 25 -75 0 -10 9 -15 26
-15 24 0 25 3 19 28 -3 15 -12 34 -19 42 -7 8 -21 39 -32 68 -18 52 -44 71
-44 32z"/>
<path d="M4521 124 c0 -11 3 -14 6 -6 3 7 2 16 -1 19 -3 4 -6 -2 -5 -13z"/>
</g>
</svg>
